<?xml version="1.0" encoding="utf-8" ?><svg xmlns="http://www.w3.org/2000/svg" xmlns:xlink="http://www.w3.org/1999/xlink" width="1020" height="1024" viewBox="0 0 1020 1024"><path fill="#FC9A8E" transform="scale(3.66906 3.67025)" d="M145.142 42.3462C153.228 41.6226 162.338 43.1519 168.978 48.141C185.569 60.7664 174.158 84.0168 174.674 101.131C175.075 114.428 184.973 127.185 176.559 139.008C173.745 142.962 163.393 149.44 158.836 150.054L158.658 149.896C159.532 147.798 162.284 145.22 163.45 142.47C167.762 132.3 159.733 125.751 152.08 120.665C147.568 117.751 140.131 114.75 137.89 109.494C135.142 103.049 141.242 94.4387 147.243 92.1285C152.154 90.2378 159.038 91.9392 163.924 93.4828C164.005 93.5199 164.085 93.5571 164.165 93.5943C164.543 90.7333 165.245 86.9077 166.726 84.4063C167.943 83.2094 167.507 82.8981 167.553 81.0665C168.286 79.623 170.116 79.3014 171.714 78.7477C167.588 73.0744 168.89 64.7545 169.662 58.0978C167.624 60.5231 164.559 65.1945 162.487 67.0138C154.389 74.0367 143.392 76.718 134.937 83.2438C132.23 85.3329 131.613 88.6996 129.224 90.8605C129.782 88.4865 130.043 87.7126 131.073 85.5535C134.39 78.6013 147.838 70.2406 149.306 63.101L149.041 62.997C148.018 64.0853 147.175 65.3768 146.189 66.4071C137.894 75.0779 125.318 83.1449 128.417 96.999C128.603 97.8297 128.984 99.1891 128.681 99.9776L128.285 99.9291C127.686 99.2965 127.619 98.9344 127.244 98.2073C119.604 83.4006 114.752 64.1377 127.552 50.584C131.976 45.8993 138.674 42.9942 145.142 42.3462Z"/><path fill="#FC9A8E" transform="scale(3.66906 3.67025)" d="M107.605 149.528C106.933 148.404 103.579 141.968 103.653 140.946C104.743 141.194 107.71 145.335 108.594 146.47C114.88 152.865 119.221 163.945 119.012 172.881C118.837 180.386 117.555 188.259 115.785 195.562C110.726 216.425 106.838 234.545 117.443 254.718L116.487 254.962C115.052 252.029 113.243 248.914 111.646 246.03L109.66 241.786C103.269 228.582 101.335 214.513 103.584 199.953C105.588 186.978 110.205 173.846 110.275 160.655C110.293 157.354 108.503 152.751 107.605 149.528Z"/><path fill="#FF7F69" transform="scale(3.66906 3.67025)" d="M107.605 149.528C106.933 148.404 103.579 141.968 103.653 140.946C104.743 141.194 107.71 145.335 108.594 146.47C107.19 146.2 107.582 145.605 106.678 145.483L106.437 145.765L106.432 145.575L106.917 145.557L106.589 146.155L106.703 146.362C107.272 147.41 107.459 148.347 107.605 149.528Z"/><path fill="#FC9A8E" transform="scale(3.66906 3.67025)" d="M157.794 154.009C161.671 153.511 174.326 161.218 177.677 163.735C180.266 165.679 182.668 167.86 184.852 170.25C202.069 189.445 188.149 209.368 172.385 223.453C170.693 224.748 168.999 226.711 167.037 227.858C166.948 226.977 170.015 223.217 170.751 222.184C172.58 219.615 174.236 216.928 175.71 214.14C178.925 208.022 181.499 200.457 181.79 193.509C182.462 177.485 170.324 162.826 157.893 154.13C157.86 154.089 157.827 154.049 157.794 154.009Z"/><defs><linearGradient id="gradient_0" gradientUnits="userSpaceOnUse" x1="144.14464" y1="209.97475" x2="149.26221" y2="175.75627"><stop offset="0" stop-color="#FF896F"/><stop offset="1" stop-color="#FC9D96"/></linearGradient></defs><path fill="url(#gradient_0)" transform="scale(3.66906 3.67025)" d="M144.988 184.868C161.046 164.303 176.152 186.971 162.694 202.433C160.486 204.969 155.833 209.377 152.776 210.676C152.32 210.565 151.618 210.942 151.187 211.147L150.504 210.717C155.895 206.998 161.058 201.391 161.964 194.843C163.807 181.527 150.154 180.179 146.123 193.162C143.099 190.242 139.573 185.793 135.05 185.728C131.359 185.675 130.299 189.877 130.491 192.87C130.981 200.542 137.068 205.235 142.196 210.365C136.305 207.613 130.178 201.084 127.893 194.974C126.246 190.571 126.119 182.274 131.517 180.455C136.221 178.871 141.481 182.021 144.988 184.868Z"/><defs><linearGradient id="gradient_1" gradientUnits="userSpaceOnUse" x1="105.19804" y1="143.27971" x2="75.171471" y2="147.83398"><stop offset="0" stop-color="#FF8D6F"/><stop offset="1" stop-color="#FB9C97"/></linearGradient></defs><path fill="url(#gradient_1)" transform="scale(3.66906 3.67025)" d="M102.266 115.919L102.535 115.995C102.918 116.816 101.837 117.566 101.223 118.299C95.0948 125.607 87.9497 132.022 84.9061 141.282C81.6019 151.336 87.022 158.702 93.4278 165.919C94.8951 167.572 98.1317 170.108 99.0681 171.941C99.6808 172.548 94.4748 169.296 94.3806 169.23C88.0907 165.643 81.515 161.184 77.3666 155.127C72.7926 148.449 75.5391 141.707 80.0467 136.035C84.443 130.503 89.5867 125.876 95.0763 121.453C97.4026 119.579 99.7369 117.507 102.266 115.919Z"/><path fill="#FF7F69" transform="scale(3.66906 3.67025)" d="M150.504 210.717L151.187 211.147C151.618 210.942 152.32 210.565 152.776 210.676C152.321 211.496 147.812 213.695 146.673 213.705L146.68 213.343C147.733 212.136 149.087 211.461 150.504 210.717Z"/><path fill="#E9C0C5" fill-opacity="0.8509804" transform="scale(3.66906 3.67025)" d="M117.443 254.718C117.78 255.498 118.394 256.658 118.093 257.424C117.463 257.042 116.871 255.686 116.487 254.962L117.443 254.718Z"/></svg>